<svg width="287.94" height="257.55" xmlns="http://www.w3.org/2000/svg"><path d="M86.824 0c-10.59 0-20.4 5.646-25.734 14.857L3.977 113.943c-5.308 9.16-5.308 20.477 0 29.662l57.113 99.061a29.788 29.788 0 0 0 25.787 14.883h114.2c10.59 0 20.4-5.646 25.734-14.857l57.141-99.137c5.308-9.16 5.308-20.479 0-29.664l-57.166-99.033C221.478 5.647 211.642.001 201.052.001zm22.664 58.467h70.568c14.649 0 26.539 11.892 26.539 26.541v22.039a2.647 2.647 0 0 1-2.652 2.654h-37.314l-54.33-40.566 40.566 40.566h-.014l48.541 48.555c.078.079.144.165.22.244 3.03 2.348 4.983 6.013 4.983 10.14 0 21.206-17.225 38.431-38.432 38.431H97.934c-14.129 0-25.629-11.475-25.604-25.656V158.36a2.535 2.535 0 0 1 2.549-2.548h40.254l51.494 40.123-40.098-40.123h.027l-49.023-49.023a14.912 14.912 0 0 1-1.035-1.14A13.993 13.993 0 0 1 72.33 95.6c0-20.53 16.626-37.157 37.156-37.131z" fill="#fff"/></svg>